Patient4_TMGait_0pt4_02_right_08_EMG.mot
version=1
nRows=13
nColumns=33
inDegrees=no
endheader
time	1LAddLong	2LGlutMax	3LGlutMed	4LIliopsoas	5LSemiMemb	6LBicFemLong	7LRecFem	8LVastMed	9LVastLat	10LGasMed	11LTibAnt	12lTibPost	13LPeroneusLong	14LSol	15LExtDigLong	16LFlexDigLong	17RAddLong	18RGlutMax	19RGlutMed	20RIliopsoas	21RSemiMemb	22RBicFemLong	23RRecFem	24RVastMed	25RVastLat	26RGasMed	27RTibAnt	28RTibPost	29RPeroneusLong	30RSol	31RExtDigLong	32RFlexDigLong
11.513	0.007629	-0.085297	0.011597	-0.006866	-0.009155	-0.35675	0.047455	-0.003662	-0.003662	-0.048981	-0.008087	-0.008087	0.1973	0.090942	-0.3305	0.011749	0.016632	-0.045166	-0.011139	-0.081177	-0.18738	0.075836	-0.064545	-0.10712	0.007019	0.007629	-0.059509	-0.006866	0.26276	-0.13473	-0.003357	-0.000763
11.514	0.004578	-0.10208	0.081177	-0.013428	-0.016785	-0.21896	0.027161	-0.014954	-0.002441	-0.082092	-0.041962	0.002899	-0.047302	0.1799	-0.16632	0.005035	0.015106	-0.062408	0.043182	0.01709	-0.064392	0.090485	-0.081482	-0.055695	0.01297	0.007172	-0.021515	-0.007019	0.31128	-0.080566	-0.000458	0.010834
11.515	-0.006409	-0.12909	0.10529	0.015717	-0.021362	-0.15228	0.034943	-0.000153	0.003204	-0.084839	-0.10803	-0.006104	0.44388	0.09201	0.13901	0.007019	-0.030212	-0.10284	0.001831	0.024567	0.081177	0.099487	-0.072937	0.051727	0.02533	0.002441	0.003967	-0.002136	0.29938	-0.005188	0.00061	0.007935
11.516	0.009308	-0.10956	0.028992	0.028381	-0.01358	-0.11871	0.008392	-0.006104	0.03006	-0.018463	-0.016022	-0.00061	-0.10376	-0.12054	-0.10956	-0.007935	-0.051422	-0.045776	0.020752	0.036621	0.13001	0.14282	-0.12573	0.04837	0.02243	0.00351	-0.000458	-0.003815	0.24155	0.020447	-0.001678	-0.002747
11.517	-0.003052	-0.097351	0.030518	0.003052	0.00473	-0.11765	-0.005188	-0.005493	0.037994	0.15839	-0.030518	0.000763	-0.11093	-0.25085	-0.092468	0.000458	-0.04364	0.006104	0.12863	0.011597	0.10361	0.086975	-0.071564	-0.009613	-0.000458	0.002747	0.023193	-0.002594	0.13626	-0.031586	-0.007172	-0.002136
11.518	0.003357	-0.089722	0.026245	0.006409	0.014496	-0.088348	0.024567	0.001678	0.000305	0.23789	-0.007477	-0.002747	-0.93262	-0.23804	0.001831	0.00412	-0.022583	-0.04837	0.085907	-0.011292	0.046692	0.061951	-0.075531	-0.015564	0.014191	0.000458	0.10208	-0.003204	0.048218	-0.064697	0.000153	-0.006561
11.519	-0.002594	-0.085602	0.080719	-0.012207	0.037384	-0.087738	0.021515	-0.010071	-0.007629	0.19379	-0.031433	-0.001068	-0.64804	-0.1358	0.046234	-0.000916	-0.011292	-0.042877	-0.036316	0.018616	0.077667	0.04715	-0.098877	0.005798	0.008392	0.002747	0.096893	-0.011444	0.18677	-0.032196	0	-0.002441
11.52	0.005188	-0.08255	0.15243	0.001526	0.053253	-0.005035	-0.001984	-0.004578	-0.022888	0.021973	-0.009918	-0.005341	-0.81268	0.040131	0.072174	0.000305	0.011139	-0.01236	-0.25452	0.014343	0.11032	0.0354	-0.053406	0.012054	0.009918	-0.003662	0.036926	-0.006104	0.54779	-0.034332	-0.002594	-0.001221
11.521	0.001221	-0.092316	0.093536	0.005341	0.028839	0.004272	0.010986	0.012817	-0.024261	-0.065308	-0.007324	-0.008392	0.22797	0.002289	-0.058594	-0.036163	0.02182	-0.007477	-0.094604	-0.019989	0.094757	0.04303	-0.095367	-0.071259	0.009003	0.006104	-0.015106	-0.001984	0.32181	-0.037842	-0.003357	-0.004425
11.522	0.011139	-0.075531	0.070496	-0.003662	0.022278	-0.11322	0.014038	-0.001831	-0.017395	-0.11414	0.005951	-0.004272	0.61661	-0.2066	0.040588	0.027618	0.021515	-0.009918	0.069427	-0.003815	-0.075226	0.12238	-0.070648	-0.053558	-0.002136	0.006104	-0.12344	-0.005035	0.012054	-0.019684	-0.001678	-0.011139
11.523	0.009003	-0.060883	0.096588	0.009308	0.023651	-0.09903	0.043488	0.000916	0.017853	-0.3804	-0.000916	0.013123	0.070343	-0.15869	0.15762	0.049896	-0.00061	-0.040436	-0.12466	-0.051575	-0.1416	0.18249	-0.096588	-0.011444	0.012512	0.001221	-0.050507	-0.011444	-0.32257	0.027924	-0.005951	-0.005798
11.524	0.004883	-0.065613	0.077515	0.016174	0.018158	-0.046692	0.11047	0.006866	0.063782	-0.27512	-0.028534	-0.006409	-0.10452	-0.3183	0.11475	-0.13825	-0.020752	-0.044403	-0.28824	-0.12253	-0.035706	0.22156	-0.10727	0.014648	0.014648	0.00412	-0.005798	-0.000458	-0.16129	-0.000763	0	-0.016479
11.525	0.008392	-0.057526	0.10956	0.002289	-0.003204	0.020905	0.098419	0.014191	0.045929	-0.027466	-0.046082	-0.028687	0.21378	-0.64804	0.071259	0.19333	-0.020294	0.016022	-0.22888	-0.19577	-0.024414	0.18936	-0.089417	0.019073	0.028381	0.003052	-0.009155	-0.000458	0.011444	-0.054932	-0.001068	-0.016174
